HIERARCHY
ROOT hip
{
  OFFSET 0 0 0
  CHANNELS 6 Xposition Yposition Zposition Zrotation Yrotation Xrotation
  JOINT abdomen
  {
    OFFSET 0 20.6881 -0.73152
    CHANNELS 3 Zrotation Xrotation Yrotation
    JOINT chest
    {
      OFFSET 0 11.7043 -0.48768
      CHANNELS 3 Zrotation Xrotation Yrotation
      JOINT neck
      {
        OFFSET 0 22.1894 -2.19456
        CHANNELS 3 Zrotation Xrotation Yrotation
        JOINT head
        {
          OFFSET -0.24384 7.07133 1.2192
          CHANNELS 3 Zrotation Xrotation Yrotation
          JOINT leftEye
          {
            OFFSET 4.14528 8.04674 8.04672
            CHANNELS 3 Zrotation Xrotation Yrotation
            End Site
            {
              OFFSET 1 0 0
            }
          }
          JOINT rightEye
          {
            OFFSET -3.6576 8.04674 8.04672
            CHANNELS 3 Zrotation Xrotation Yrotation
            End Site
            {
              OFFSET 1 0 0
            }
          }
        }
      }
      JOINT rCollar
      {
        OFFSET -2.68224 19.2634 -4.8768
        CHANNELS 3 Zrotation Xrotation Yrotation
        JOINT rShldr
        {
          OFFSET -8.77824 -1.95073 1.46304
          CHANNELS 3 Zrotation Xrotation Yrotation
          JOINT rForeArm
          {
            OFFSET -28.1742 -1.7115 0.48768
            CHANNELS 3 Zrotation Xrotation Yrotation
            JOINT rHand
            {
              OFFSET -22.5879 0.773209 7.07136
              CHANNELS 3 Zrotation Xrotation Yrotation
              JOINT rThumb1
              {
                OFFSET -1.2192 -0.487915 3.41376
                CHANNELS 3 Zrotation Xrotation Yrotation
                JOINT rThumb2
                {
                  OFFSET -3.37035 -0.52449 3.41376
                  CHANNELS 3 Zrotation Xrotation Yrotation
                  End Site
                  {
                    OFFSET -1.78271 -1.18214 1.43049
                  }
                }
              }
              JOINT rIndex1
              {
                OFFSET -7.75947 0.938293 5.60832
                CHANNELS 3 Zrotation Xrotation Yrotation
                JOINT rIndex2
                {
                  OFFSET -2.54057 -0.884171 1.56538
                  CHANNELS 3 Zrotation Xrotation Yrotation
                  End Site
                  {
                    OFFSET -1.62519 -0.234802 1.16502
                  }
                }
              }
              JOINT rMid1
              {
                OFFSET -8.24714 1.18213 3.41376
                CHANNELS 3 Zrotation Xrotation Yrotation
                JOINT rMid2
                {
                  OFFSET -3.10165 -0.590103 1.0647
                  CHANNELS 3 Zrotation Xrotation Yrotation
                  End Site
                  {
                    OFFSET -2.48547 -0.328903 0.83742
                  }
                }
              }
              JOINT rRing1
              {
                OFFSET -8.82822 0.546677 1.51678
                CHANNELS 3 Zrotation Xrotation Yrotation
                JOINT rRing2
                {
                  OFFSET -2.60934 -0.819778 -0.0198488
                  CHANNELS 3 Zrotation Xrotation Yrotation
                  End Site
                  {
                    OFFSET -2.33842 -0.294052 0.168128
                  }
                }
              }
              JOINT rPinky1
              {
                OFFSET -8.27202 -0.0477905 -0.4584
                CHANNELS 3 Zrotation Xrotation Yrotation
                JOINT rPinky2
                {
                  OFFSET -1.82734 -0.647385 -0.700984
                  CHANNELS 3 Zrotation Xrotation Yrotation
                  End Site
                  {
                    OFFSET -1.69225 -0.51767 -0.607171
                  }
                }
              }
            }
          }
        }
      }
      JOINT lCollar
      {
        OFFSET 2.68224 19.2634 -4.8768
        CHANNELS 3 Zrotation Xrotation Yrotation
        JOINT lShldr
        {
          OFFSET 8.77824 -1.95073 1.46304
          CHANNELS 3 Zrotation Xrotation Yrotation
          JOINT lForeArm
          {
            OFFSET 28.1742 -1.7115 0.48768
            CHANNELS 3 Zrotation Xrotation Yrotation
            JOINT lHand
            {
              OFFSET 22.5879 0.773209 7.07136
              CHANNELS 3 Zrotation Xrotation Yrotation
              JOINT lThumb1
              {
                OFFSET 1.2192 -0.487915 3.41376
                CHANNELS 3 Zrotation Xrotation Yrotation
                JOINT lThumb2
                {
                  OFFSET 3.37035 -0.52449 3.41376
                  CHANNELS 3 Zrotation Xrotation Yrotation
                  End Site
                  {
                    OFFSET 1.78271 -1.18214 1.43049
                  }
                }
              }
              JOINT lIndex1
              {
                OFFSET 7.75947 0.938293 5.60832
                CHANNELS 3 Zrotation Xrotation Yrotation
                JOINT lIndex2
                {
                  OFFSET 2.54057 -0.884171 1.56538
                  CHANNELS 3 Zrotation Xrotation Yrotation
                  End Site
                  {
                    OFFSET 1.62519 -0.234802 1.16502
                  }
                }
              }
              JOINT lMid1
              {
                OFFSET 8.24714 1.18213 3.41376
                CHANNELS 3 Zrotation Xrotation Yrotation
                JOINT lMid2
                {
                  OFFSET 3.10165 -0.590103 1.0647
                  CHANNELS 3 Zrotation Xrotation Yrotation
                  End Site
                  {
                    OFFSET 2.48547 -0.328903 0.83742
                  }
                }
              }
              JOINT lRing1
              {
                OFFSET 8.82822 0.546677 1.51678
                CHANNELS 3 Zrotation Xrotation Yrotation
                JOINT lRing2
                {
                  OFFSET 2.60934 -0.819778 -0.0198488
                  CHANNELS 3 Zrotation Xrotation Yrotation
                  End Site
                  {
                    OFFSET 2.33842 -0.294052 0.168128
                  }
                }
              }
              JOINT lPinky1
              {
                OFFSET 8.27202 -0.0477905 -0.4584
                CHANNELS 3 Zrotation Xrotation Yrotation
                JOINT lPinky2
                {
                  OFFSET 1.82734 -0.647385 -0.700984
                  CHANNELS 3 Zrotation Xrotation Yrotation
                  End Site
                  {
                    OFFSET 1.69225 -0.51767 -0.607171
                  }
                }
              }
            }
          }
        }
      }
    }
  }
  JOINT rButtock
  {
    OFFSET -8.77824 4.35084 1.2192
    CHANNELS 3 Zrotation Xrotation Yrotation
    JOINT rThigh
    {
      OFFSET 0 -1.70687 -2.19456
      CHANNELS 3 Zrotation Xrotation Yrotation
      JOINT rShin
      {
        OFFSET 0 -36.8199 0.73152
        CHANNELS 3 Zrotation Xrotation Yrotation
        JOINT rFoot
        {
          OFFSET 0.73152 -45.1104 -5.12064
          CHANNELS 3 Zrotation Xrotation Yrotation
          End Site
          {
            OFFSET -1.1221 -3.69964 12.103
          }
        }
      }
    }
  }
  JOINT lButtock
  {
    OFFSET 8.77824 4.35084 1.2192
    CHANNELS 3 Zrotation Xrotation Yrotation
    JOINT lThigh
    {
      OFFSET 0 -1.70687 -2.19456
      CHANNELS 3 Zrotation Xrotation Yrotation
      JOINT lShin
      {
        OFFSET 0 -36.8199 0.73152
        CHANNELS 3 Zrotation Xrotation Yrotation
        JOINT lFoot
        {
          OFFSET -0.73152 -45.1104 -5.12064
          CHANNELS 3 Zrotation Xrotation Yrotation
          End Site
          {
            OFFSET 1.1221 -3.69964 12.103
          }
        }
      }
    }
  }
}
MOTION
Frames:	4
Frame Time:	0.03333
-0.0372999998978235 60.21929855333371 0.20200000323771067 3.790299654006958 18.383102416992188 7.056399822235107 -9.079618453979492 10.869900703430176 0.22441881895065308 5.2577900886535645 -9.17887020111084 0.3487670123577118 -7.510270118713379 17.146198272705078 -8.457679748535156 12.113298416137695 -27.575698852539062 -13.873000144958496 -0.0 0.0 -0.0 -0.0 0.0 -0.0 -6.29650005095142e-14 -8.333940227376116e-14 5.075839921986347e-13 40.55939483642578 29.054000854492188 16.936199188232422 -28.161197662353516 -31.680200576782227 69.93939971923828 -0.038121599704027176 -5.563460350036621 -0.7843860387802124 7.124429379778974e-10 1.0383000237368378e-08 -3.624869515661544e-09 1.2444300034886169e-09 1.8004298496521187e-08 -6.259250007190076e-09 7.124490442045328e-10 1.0383000237368378e-08 -3.6248799517579755e-09 7.730909824371338 5.474879741668701 0.4173140823841095 7.124419942883264e-10 1.0383000237368378e-08 -3.624869515661544e-09 2.9055399894714355 0.9651829600334167 0.10290199518203735 7.124539846969924e-10 1.0383000237368378e-08 -3.624869515661544e-09 10.27859878540039 0.73180091381073 0.025912316516041756 7.124399958868821e-10 1.0383000237368378e-08 -3.6248497536917057e-09 2.221669912338257 -0.733487069606781 -0.208919957280159 -6.299409778531828e-14 -8.334209245040164e-14 5.074849503301782e-13 -58.6194953918457 55.17051315307617 -17.859201431274414 27.87689971923828 -41.018707275390625 -85.7676010131836 1.2472001314163208 -29.994304656982422 4.653110027313232 2.8623398096172536e-10 -1.5578899281720737e-09 6.812399533373537e-10 4.739569847700409e-10 -2.299930024207697e-09 1.1878299455148067e-09 2.8622398895450374e-10 -1.5578800471871546e-09 6.812469477424088e-10 -7.730909824371338 5.474879741668701 -0.4173140823841095 2.8623498016244753e-10 -1.5578899281720737e-09 6.812420072499492e-10 -2.9055399894714355 0.9651829600334167 -0.10290199518203735 2.8622698655667023e-10 -1.5578599521504088e-09 6.812439501402423e-10 -10.27859878540039 0.73180091381073 -0.025912316516041756 2.8624000392163396e-10 -1.5578699441576305e-09 6.812379549359093e-10 -2.221669912338257 -0.733487069606781 0.208919957280159 -2.0321699480147914e-16 0.0 -3.8825099822884138e-19 -42.53730010986328 -59.643798828125 -38.80940246582031 -1.3832000494003296 64.0552978515625 1.804729700088501 1.3366601467132568 -0.864931046962738 12.766600608825684 2.0321699480147914e-16 0.0 3.8825099822884138e-19 9.593650817871094 -0.11754699051380157 5.91187047958374 0.057692598551511765 43.59479904174805 -2.6937601566314697 13.75209903717041 -22.063697814941406 34.372802734375
-0.08120000025144909 60.00700261355137 0.37100000086135765 3.5953004360198975 18.6864013671875 6.815900802612305 -8.97092056274414 10.802000045776367 0.033061668276786804 5.252350807189941 -9.077001571655273 0.29122111201286316 -7.704660892486572 17.064701080322266 -8.409329414367676 12.479500770568848 -27.23649787902832 -13.710899353027344 -0.0 0.0 -0.0 -0.0 0.0 -0.0 -1.4825899568356865e-13 7.156250181469207e-15 7.603019776258879e-13 41.03730010986328 28.9851016998291 16.42149543762207 -28.155996322631836 -31.64150619506836 69.87669372558594 -0.0393885001540184 -5.655440330505371 -0.7974370121955872 3.995139774559675e-10 1.093439916388661e-08 -4.612319859376157e-09 7.073499563858832e-10 1.897929990946068e-08 -7.966390214164676e-09 3.9952297026246697e-10 1.093439916388661e-08 -4.6123398433906004e-09 7.730909824371338 5.474879741668701 0.4173140823841095 3.9951600361298745e-10 1.093439916388661e-08 -4.612329629338774e-09 2.9055399894714355 0.9651829600334167 0.10290199518203735 3.99528021777229e-10 1.093439916388661e-08 -4.612329629338774e-09 10.27859878540039 0.73180091381073 0.025912316516041756 3.9950998065307886e-10 1.093439916388661e-08 -4.612319859376157e-09 2.221669912338257 -0.733487069606781 -0.208919957280159 -1.4828799809168264e-13 7.155669963900338e-15 7.602019599754761e-13 -57.61219787597656 55.190303802490234 -18.90610122680664 27.900197982788086 -40.910701751708984 -85.56969451904297 1.25885009765625 -30.117998123168945 4.676380157470703 -3.683079882743634e-12 1.6421498882923657e-10 -2.8243299626112828e-12 -1.3490299155538565e-11 4.1971898179227196e-10 3.734769871838184e-12 -3.694209868565501e-12 1.6421299042779225e-10 -2.814789634014714e-12 -7.730909824371338 5.474879741668701 -0.4173140823841095 -3.6822897162003265e-12 1.6421299042779225e-10 -2.817970032667483e-12 -2.9055399894714355 0.9651829600334167 -0.10290199518203735 -3.690639807651941e-12 1.642359997999776e-10 -2.817970032667483e-12 -10.27859878540039 0.73180091381073 -0.025912316516041756 -3.676719952799834e-12 1.6421598802995874e-10 -2.8275099275831828e-12 -2.221669912338257 -0.733487069606781 0.208919957280159 -2.0321699480147914e-16 0.0 -3.8825099822884138e-19 -42.60919952392578 -59.6266975402832 -39.13140106201172 -1.4454199075698853 64.74649810791016 1.8670798540115356 1.3495099544525146 -1.2951501607894897 12.15719985961914 2.0321699480147914e-16 0.0 3.8825099822884138e-19 9.904260635375977 0.04013216495513916 5.694820404052734 0.054880302399396896 43.729103088378906 -2.723680019378662 14.275398254394531 -22.324098587036133 35.096397399902344
-0.06300000071259809 59.750201161137234 0.5920000028846703 3.4596002101898193 18.809200286865234 6.575600624084473 -9.103189468383789 10.853700637817383 0.047528814524412155 5.238280296325684 -8.992620468139648 0.28283801674842834 -7.708391189575195 17.040098190307617 -8.42555046081543 12.464400291442871 -26.99049949645996 -13.762497901916504 -0.0 0.0 -0.0 -0.0 0.0 -0.0 -6.548279578083224e-14 -1.286139977071249e-13 4.2515998859536663e-13 41.480499267578125 28.960100173950195 15.998298645019531 -28.14539909362793 -31.564292907714844 69.75309753417969 -0.041034597903490067 -5.772160530090332 -0.8140069842338562 1.008529926238566e-09 1.217519951524082e-08 -3.6286300630905544e-09 1.7567899357473493e-09 2.110130026267143e-08 -6.264489815777097e-09 1.0085399182457877e-09 1.217519951524082e-08 -3.628639833053171e-09 7.730909824371338 5.474879741668701 0.4173140823841095 1.008529926238566e-09 1.217519951524082e-08 -3.6286300630905544e-09 2.9055399894714355 0.9651829600334167 0.10290199518203735 1.0085399182457877e-09 1.217519951524082e-08 -3.628639833053171e-09 10.27859878540039 0.73180091381073 0.025912316516041756 1.008529926238566e-09 1.217519951524082e-08 -3.628639833053171e-09 2.221669912338257 -0.733487069606781 -0.208919957280159 -6.55951936648011e-14 -1.286139977071249e-13 4.2492997510447383e-13 -56.73729705810547 55.185298919677734 -19.805694580078125 27.91790199279785 -40.826698303222656 -85.41649627685547 1.273460030555725 -30.27210235595703 4.705470085144043 3.6980696282995495e-10 -4.794469821156611e-10 1.200629928810315e-09 6.063349822227337e-10 -3.6740699371762275e-10 2.084620032150042e-09 3.697979977790311e-10 -4.794469821156611e-10 1.2006400318398391e-09 -7.730909824371338 5.474879741668701 -0.4173140823841095 3.6980996043212144e-10 -4.794439845134946e-10 1.2006400318398391e-09 -2.9055399894714355 0.9651829600334167 -0.10290199518203735 3.6979899697975327e-10 -4.794289965026621e-10 1.200629928810315e-09 -10.27859878540039 0.73180091381073 -0.025912316516041756 3.6980996043212144e-10 -4.794439845134946e-10 1.2006200478253959e-09 -2.221669912338257 -0.733487069606781 0.208919957280159 -2.0321699480147914e-16 0.0 -3.8825099822884138e-19 -42.69609832763672 -59.66939926147461 -39.13020324707031 -1.5152400732040405 65.4822998046875 1.938340187072754 1.4027899503707886 -1.7052401304244995 11.87809944152832 2.0321699480147914e-16 0.0 3.8825099822884138e-19 10.026900291442871 0.39100009202957153 5.468099117279053 0.051641594618558884 43.85660171508789 -2.755350112915039 14.779801368713379 -22.64790153503418 35.70330047607422
-0.07080000087228994 59.47099668824546 0.7840000088678873 3.5525996685028076 18.89630126953125 6.162599563598633 -9.376290321350098 10.943899154663086 0.1585959494113922 5.235520362854004 -8.923871040344238 0.2986019551753998 -7.690950870513916 17.04020118713379 -8.456698417663574 12.430198669433594 -26.75579833984375 -13.849699974060059 -0.0 0.0 -0.0 -0.0 0.0 -0.0 3.6662601394458344e-14 -2.4490300195786907e-13 6.694070211338277e-14 41.8600959777832 28.997703552246094 15.64889907836914 -28.1299991607666 -31.45319938659668 69.57429504394531 -0.04195849597454071 -5.836240291595459 -0.8231068849563599 1.4521800428823894e-09 1.2449399733327482e-08 -2.563870005189983e-09 2.5203299447440486e-09 2.1555397466954673e-08 -4.423959865107463e-09 1.4521800428823894e-09 1.2449300257344476e-08 -2.563870005189983e-09 7.730909824371338 5.474879741668701 0.4173140823841095 1.4521800428823894e-09 1.2449399733327482e-08 -2.563870005189983e-09 2.9055399894714355 0.9651829600334167 0.10290199518203735 1.4521899238673086e-09 1.2449399733327482e-08 -2.563870005189983e-09 10.27859878540039 0.73180091381073 0.025912316516041756 1.4521800428823894e-09 1.2449300257344476e-08 -2.563870005189983e-09 2.221669912338257 -0.733487069606781 -0.208919957280159 3.6492496849858946e-14 -2.4490300195786907e-13 6.6592896832713e-14 -56.074798583984375 55.1526985168457 -20.495399475097656 27.932899475097656 -40.75480270385742 -85.28510284423828 1.2834398746490479 -30.376399993896484 4.725209712982178 7.305369642551796e-10 -1.6787200518564305e-09 2.163490053774808e-09 1.2103399393836867e-09 -2.1817099238319315e-09 3.74958997184649e-09 7.305309690508466e-10 -1.6787200518564305e-09 2.1634998237374248e-09 -7.730909824371338 5.474879741668701 -0.4173140823841095 7.305410165692194e-10 -1.6787099488269064e-09 2.1634998237374248e-09 -2.9055399894714355 0.9651829600334167 -0.10290199518203735 7.30528915138251e-10 -1.6787099488269064e-09 2.163490053774808e-09 -10.27859878540039 0.73180091381073 -0.025912316516041756 7.305379634559017e-10 -1.6787099488269064e-09 2.1634800617675864e-09 -2.221669912338257 -0.733487069606781 0.208919957280159 -2.0321699480147914e-16 0.0 -3.8825099822884138e-19 -42.7870979309082 -59.726505279541016 -38.977596282958984 -1.5880802869796753 66.20030212402344 2.011439561843872 1.4864200353622437 -2.174409866333008 11.732098579406738 2.0321699480147914e-16 0.0 3.8825099822884138e-19 10.069001197814941 0.800883948802948 5.310820579528809 0.048352498561143875 43.995704650878906 -2.7888903617858887 15.244800567626953 -22.946901321411133 36.25639724731445
